<mxfile host="app.diagrams.net" modified="2024-01-08T15:21:54.053Z" agent="Mozilla/5.0 (Windows NT 10.0; Win64; x64) AppleWebKit/537.36 (KHTML, like Gecko) Chrome/120.0.0.0 Safari/537.36 Edg/120.0.0.0" etag="mhous5hboDbHgyII3hvD" version="22.1.17" type="device">
  <diagram name="Страница — 1" id="unoQFFWEzpypf-69vjcc">
    <mxGraphModel dx="914" dy="797" grid="1" gridSize="10" guides="1" tooltips="1" connect="1" arrows="1" fold="1" page="1" pageScale="1" pageWidth="827" pageHeight="1169" math="0" shadow="0">
      <root>
        <mxCell id="0" />
        <mxCell id="1" parent="0" />
        <mxCell id="eijrhbPHotnC4Y3z9c2C-4" value="" style="edgeStyle=orthogonalEdgeStyle;rounded=0;orthogonalLoop=1;jettySize=auto;html=1;" edge="1" parent="1" source="eijrhbPHotnC4Y3z9c2C-1" target="eijrhbPHotnC4Y3z9c2C-2">
          <mxGeometry relative="1" as="geometry" />
        </mxCell>
        <mxCell id="eijrhbPHotnC4Y3z9c2C-1" value="&lt;font style=&quot;font-size: 24px;&quot;&gt;Начало&lt;/font&gt;" style="rounded=1;whiteSpace=wrap;html=1;fillColor=#D284E6;" vertex="1" parent="1">
          <mxGeometry x="355" y="40" width="120" height="60" as="geometry" />
        </mxCell>
        <mxCell id="eijrhbPHotnC4Y3z9c2C-6" value="" style="edgeStyle=orthogonalEdgeStyle;rounded=0;orthogonalLoop=1;jettySize=auto;html=1;" edge="1" parent="1" source="eijrhbPHotnC4Y3z9c2C-2" target="eijrhbPHotnC4Y3z9c2C-5">
          <mxGeometry relative="1" as="geometry" />
        </mxCell>
        <mxCell id="eijrhbPHotnC4Y3z9c2C-2" value="Определение параметров подбираемой шины" style="rounded=0;whiteSpace=wrap;html=1;fillColor=#3D57FF;" vertex="1" parent="1">
          <mxGeometry x="355" y="130" width="120" height="60" as="geometry" />
        </mxCell>
        <mxCell id="eijrhbPHotnC4Y3z9c2C-8" value="" style="edgeStyle=orthogonalEdgeStyle;rounded=0;orthogonalLoop=1;jettySize=auto;html=1;" edge="1" parent="1" source="eijrhbPHotnC4Y3z9c2C-5" target="eijrhbPHotnC4Y3z9c2C-7">
          <mxGeometry relative="1" as="geometry" />
        </mxCell>
        <mxCell id="eijrhbPHotnC4Y3z9c2C-5" value="&lt;p class=&quot;MsoNormal&quot;&gt;Поиск предложений в яндекс-маркете, согласно параметрам.&lt;/p&gt;" style="whiteSpace=wrap;html=1;fillColor=#3D57FF;rounded=0;" vertex="1" parent="1">
          <mxGeometry x="355" y="220" width="120" height="60" as="geometry" />
        </mxCell>
        <mxCell id="eijrhbPHotnC4Y3z9c2C-23" value="" style="edgeStyle=orthogonalEdgeStyle;rounded=0;orthogonalLoop=1;jettySize=auto;html=1;" edge="1" parent="1" source="eijrhbPHotnC4Y3z9c2C-7" target="eijrhbPHotnC4Y3z9c2C-9">
          <mxGeometry relative="1" as="geometry" />
        </mxCell>
        <mxCell id="eijrhbPHotnC4Y3z9c2C-7" value="&lt;p class=&quot;MsoNormal&quot;&gt;Ознакомление с ценовыми предложениями&lt;/p&gt;" style="whiteSpace=wrap;html=1;fillColor=#3D57FF;rounded=0;" vertex="1" parent="1">
          <mxGeometry x="355" y="320" width="120" height="60" as="geometry" />
        </mxCell>
        <mxCell id="eijrhbPHotnC4Y3z9c2C-25" value="" style="edgeStyle=orthogonalEdgeStyle;rounded=0;orthogonalLoop=1;jettySize=auto;html=1;" edge="1" parent="1" source="eijrhbPHotnC4Y3z9c2C-9" target="eijrhbPHotnC4Y3z9c2C-24">
          <mxGeometry relative="1" as="geometry" />
        </mxCell>
        <mxCell id="eijrhbPHotnC4Y3z9c2C-9" value="&lt;p class=&quot;MsoNormal&quot;&gt;Определение диапазона приемлемой денежной суммы для&lt;br/&gt;приобретения&lt;/p&gt;" style="whiteSpace=wrap;html=1;fillColor=#3D57FF;rounded=0;" vertex="1" parent="1">
          <mxGeometry x="260" y="400" width="310" height="60" as="geometry" />
        </mxCell>
        <mxCell id="eijrhbPHotnC4Y3z9c2C-14" value="" style="edgeStyle=orthogonalEdgeStyle;rounded=0;orthogonalLoop=1;jettySize=auto;html=1;" edge="1" parent="1" source="eijrhbPHotnC4Y3z9c2C-11" target="eijrhbPHotnC4Y3z9c2C-13">
          <mxGeometry relative="1" as="geometry" />
        </mxCell>
        <mxCell id="eijrhbPHotnC4Y3z9c2C-11" value="&lt;br&gt;&lt;span style=&quot;background-color: initial;&quot;&gt;Выборка предложений, входящих в диапазон приемлемой суммы&lt;/span&gt;&lt;br&gt;&lt;p class=&quot;MsoNormal&quot;&gt;для приобретения&lt;/p&gt;" style="whiteSpace=wrap;html=1;fillColor=#3D57FF;rounded=0;" vertex="1" parent="1">
          <mxGeometry x="220" y="680" width="390" height="60" as="geometry" />
        </mxCell>
        <mxCell id="eijrhbPHotnC4Y3z9c2C-16" value="" style="edgeStyle=orthogonalEdgeStyle;rounded=0;orthogonalLoop=1;jettySize=auto;html=1;" edge="1" parent="1" source="eijrhbPHotnC4Y3z9c2C-13" target="eijrhbPHotnC4Y3z9c2C-15">
          <mxGeometry relative="1" as="geometry" />
        </mxCell>
        <mxCell id="eijrhbPHotnC4Y3z9c2C-13" value="&lt;span style=&quot;background-color: initial;&quot;&gt;Определение дополнительных характеристик выбора: производитель,&lt;/span&gt;&lt;br&gt;&lt;p class=&quot;MsoNormal&quot;&gt;протектор, срок доставки, условия оплаты&lt;/p&gt;" style="whiteSpace=wrap;html=1;fillColor=#3D57FF;rounded=0;" vertex="1" parent="1">
          <mxGeometry x="255" y="770" width="320" height="70" as="geometry" />
        </mxCell>
        <mxCell id="eijrhbPHotnC4Y3z9c2C-18" value="" style="edgeStyle=orthogonalEdgeStyle;rounded=0;orthogonalLoop=1;jettySize=auto;html=1;" edge="1" parent="1" source="eijrhbPHotnC4Y3z9c2C-15" target="eijrhbPHotnC4Y3z9c2C-17">
          <mxGeometry relative="1" as="geometry" />
        </mxCell>
        <mxCell id="eijrhbPHotnC4Y3z9c2C-15" value="&lt;span style=&quot;font-size:11.0pt;line-height:107%;&lt;br/&gt;font-family:&amp;quot;Calibri&amp;quot;,sans-serif;mso-ascii-theme-font:minor-latin;mso-fareast-font-family:&lt;br/&gt;Calibri;mso-fareast-theme-font:minor-latin;mso-hansi-theme-font:minor-latin;&lt;br/&gt;mso-bidi-font-family:&amp;quot;Times New Roman&amp;quot;;mso-bidi-theme-font:minor-bidi;&lt;br/&gt;mso-ansi-language:RU;mso-fareast-language:EN-US;mso-bidi-language:AR-SA&quot;&gt;Выбор&lt;br&gt;варианта для приобретения, согласно дополнительным характеристикам выбора&lt;/span&gt;" style="whiteSpace=wrap;html=1;fillColor=#3D57FF;rounded=0;" vertex="1" parent="1">
          <mxGeometry x="285" y="870" width="260" height="85" as="geometry" />
        </mxCell>
        <mxCell id="eijrhbPHotnC4Y3z9c2C-17" value="&lt;span style=&quot;background-color: initial;&quot;&gt;Оплата шины&lt;/span&gt;&lt;br&gt;" style="whiteSpace=wrap;html=1;fillColor=#3D57FF;rounded=0;" vertex="1" parent="1">
          <mxGeometry x="355" y="980" width="120" height="60" as="geometry" />
        </mxCell>
        <mxCell id="eijrhbPHotnC4Y3z9c2C-22" value="" style="edgeStyle=orthogonalEdgeStyle;rounded=0;orthogonalLoop=1;jettySize=auto;html=1;" edge="1" parent="1" source="eijrhbPHotnC4Y3z9c2C-17" target="eijrhbPHotnC4Y3z9c2C-21">
          <mxGeometry relative="1" as="geometry">
            <mxPoint x="415" y="1040" as="sourcePoint" />
            <mxPoint x="414" y="1175" as="targetPoint" />
          </mxGeometry>
        </mxCell>
        <mxCell id="eijrhbPHotnC4Y3z9c2C-21" value="&lt;font style=&quot;font-size: 24px;&quot;&gt;Конец&lt;/font&gt;" style="rounded=1;whiteSpace=wrap;html=1;fillColor=#D284E6;" vertex="1" parent="1">
          <mxGeometry x="354" y="1070" width="120" height="60" as="geometry" />
        </mxCell>
        <mxCell id="eijrhbPHotnC4Y3z9c2C-26" value="" style="edgeStyle=orthogonalEdgeStyle;rounded=0;orthogonalLoop=1;jettySize=auto;html=1;" edge="1" parent="1" source="eijrhbPHotnC4Y3z9c2C-24" target="eijrhbPHotnC4Y3z9c2C-11">
          <mxGeometry relative="1" as="geometry" />
        </mxCell>
        <mxCell id="eijrhbPHotnC4Y3z9c2C-27" value="&lt;font style=&quot;font-size: 24px;&quot;&gt;ДА&lt;/font&gt;" style="edgeLabel;html=1;align=center;verticalAlign=middle;resizable=0;points=[];" vertex="1" connectable="0" parent="eijrhbPHotnC4Y3z9c2C-26">
          <mxGeometry x="-0.2" relative="1" as="geometry">
            <mxPoint x="-1" y="2" as="offset" />
          </mxGeometry>
        </mxCell>
        <mxCell id="eijrhbPHotnC4Y3z9c2C-28" style="edgeStyle=orthogonalEdgeStyle;rounded=0;orthogonalLoop=1;jettySize=auto;html=1;" edge="1" parent="1" source="eijrhbPHotnC4Y3z9c2C-24">
          <mxGeometry relative="1" as="geometry">
            <mxPoint x="200" y="555" as="targetPoint" />
          </mxGeometry>
        </mxCell>
        <mxCell id="eijrhbPHotnC4Y3z9c2C-29" value="&lt;font style=&quot;font-size: 24px;&quot;&gt;Нет&lt;/font&gt;" style="edgeLabel;html=1;align=center;verticalAlign=middle;resizable=0;points=[];" vertex="1" connectable="0" parent="eijrhbPHotnC4Y3z9c2C-28">
          <mxGeometry x="-0.2558" relative="1" as="geometry">
            <mxPoint x="-10" as="offset" />
          </mxGeometry>
        </mxCell>
        <mxCell id="eijrhbPHotnC4Y3z9c2C-24" value="&lt;font style=&quot;font-size: 18px;&quot;&gt;Денег хватает?&lt;/font&gt;" style="rhombus;whiteSpace=wrap;html=1;fillColor=#994C00;" vertex="1" parent="1">
          <mxGeometry x="280" y="500" width="270" height="110" as="geometry" />
        </mxCell>
        <mxCell id="eijrhbPHotnC4Y3z9c2C-34" style="edgeStyle=orthogonalEdgeStyle;rounded=0;orthogonalLoop=1;jettySize=auto;html=1;" edge="1" parent="1" source="eijrhbPHotnC4Y3z9c2C-33">
          <mxGeometry relative="1" as="geometry">
            <mxPoint x="415" y="480" as="targetPoint" />
            <Array as="points">
              <mxPoint x="140" y="480" />
              <mxPoint x="415" y="480" />
            </Array>
          </mxGeometry>
        </mxCell>
        <mxCell id="eijrhbPHotnC4Y3z9c2C-33" value="Взять в долг или оформить кредит" style="rounded=0;whiteSpace=wrap;html=1;fillColor=#3D57FF;" vertex="1" parent="1">
          <mxGeometry x="80" y="525" width="120" height="60" as="geometry" />
        </mxCell>
      </root>
    </mxGraphModel>
  </diagram>
</mxfile>
